<svg xmlns="http://www.w3.org/2000/svg" xmlns:xlink="http://www.w3.org/1999/xlink" version="1.1" x="0px" y="0px" viewBox="0 0 100 125" enable-background="new 0 0 100 100" xml:space="preserve"><path fill="#000000" d="M88.7,51.3c0,0.2-0.1,0.3-0.1,0.5c-0.1,0.2-0.1,0.4-0.2,0.6c-0.1,0.2-0.2,0.4-0.3,0.5  c-0.1,0.2-0.1,0.3-0.2,0.4c-0.2,0.3-0.5,0.6-0.7,0.9l0,0l0,0c-0.3,0.3-0.6,0.5-0.9,0.7c0,0,0,0-0.1,0C86.1,55,86,55,85.9,55.1  L57.1,83.9c-1.2,1.2-2.7,1.7-4.2,1.7s-3.1-0.5-4.2-1.7c-2.2-2.3-2.2-5.9,0-8.2l11.1-10.9l0.4-0.4h0.1l8.6-8.6l-18.9,0H32.4  l-15.5-0.1c-3.2,0-5.8-2.6-5.7-5.8c0-3.2,2.6-5.8,5.8-5.7h33h6.4l0,0L69,44.3l-8.7-8.7h-0.2l-0.3-0.3L48.9,24.2  c-2.2-2.3-2.2-5.9,0-8.2c2.3-2.2,5.9-2.2,8.2,0l28.8,28.7c0.4,0.2,0.9,0.5,1.2,0.9c1.2,1.2,1.7,2.7,1.7,4.3c0,0.1,0,0.1,0,0.2l0,0  C88.8,50.6,88.8,50.9,88.7,51.3z"/><text x="0" y="115" fill="#000000" font-size="5px" font-weight="bold" font-family="'Helvetica Neue', Helvetica, Arial-Unicode, Arial, Sans-serif">Created by Javier Cabezas</text><text x="0" y="120" fill="#000000" font-size="5px" font-weight="bold" font-family="'Helvetica Neue', Helvetica, Arial-Unicode, Arial, Sans-serif">from the Noun Project</text></svg>