<svg width="31" height="32" viewBox="0 0 31 32" fill="none" xmlns="http://www.w3.org/2000/svg">
<path d="M13.6914 30.1304L1.07652 5.46055C0.788149 4.89618 0.661261 4.26312 0.709827 3.63121C0.758393 2.9993 0.98054 2.39308 1.35175 1.8794C1.72298 1.36572 2.22885 0.96454 2.81359 0.720098C3.39833 0.475655 4.03922 0.397452 4.66558 0.494119L28.044 4.10227C28.5822 4.18535 29.0931 4.395 29.5346 4.71398C29.9759 5.03297 30.3353 5.45218 30.5832 5.93714C30.831 6.4221 30.9603 6.95895 30.9602 7.50358C30.96 8.04819 30.8307 8.58502 30.5828 9.0699L19.8132 30.1316C19.524 30.6943 19.0852 31.1665 18.5451 31.4961C18.005 31.8257 17.3846 32 16.7519 31.9999C16.1192 31.9997 15.4988 31.8252 14.9588 31.4955C14.4188 31.1656 13.9803 30.6933 13.6914 30.1304Z" fill="white"/>
</svg>
